PathFileType	4	(X/Y/Z)	C:/Users/opensim2020/Desktop/walking_exp_matlab/subject01_walking05_straight_02.trc																																																																																																																															
DataRate	CameraRate	NumFrames	NumMarkers	Units	OrigDataRate	OrigDataStartFrame	OrigNumFrames																																																																																																																											
100	100	4	43	mm	100	1578	205																																																																																																																											
Frame#	Time	LFHD			RFHD			LBHD			RBHD			C7			T10			CLAV			STRN			RBAK			LSHO			LUPA			LELB			LFRM			LWRA			LWRB			LFIN			RSHO			RUPA			RELB			RFRM			RWRA			RWRB			RFIN			LASI			RASI			LPSI			RPSI			LTHI			LKNE			LTIB			LANK			LHEE			LTOE			RTHI			RKNE			RTIB			RANK			RHEE			RTOE			*39			*40			*41			*42		
		X1	Y1	Z1	X2	Y2	Z2	X3	Y3	Z3	X4	Y4	Z4	X5	Y5	Z5	X6	Y6	Z6	X7	Y7	Z7	X8	Y8	Z8	X9	Y9	Z9	X10	Y10	Z10	X11	Y11	Z11	X12	Y12	Z12	X13	Y13	Z13	X14	Y14	Z14	X15	Y15	Z15	X16	Y16	Z16	X17	Y17	Z17	X18	Y18	Z18	X19	Y19	Z19	X20	Y20	Z20	X21	Y21	Z21	X22	Y22	Z22	X23	Y23	Z23	X24	Y24	Z24	X25	Y25	Z25	X26	Y26	Z26	X27	Y27	Z27	X28	Y28	Z28	X29	Y29	Z29	X30	Y30	Z30	X31	Y31	Z31	X32	Y32	Z32	X33	Y33	Z33	X34	Y34	Z34	X35	Y35	Z35	X36	Y36	Z36	X37	Y37	Z37	X38	Y38	Z38	X39	Y39	Z39	X40	Y40	Z40	X41	Y41	Z41	X42	Y42	Z42	X43	Y43	Z43
																																																																																																																																		
103	1.02	-100.65398	1655.33447	-1498.28162	-78.05279	1663.25708	-1386.52673	-214.41621	1605.79187	-1480.38196	-193.58543	1612.62793	-1361.03772	-248.22041	1418.30103	-1432.24268	-282.99686	1124.85681	-1419.1178	-103.77618	1348.88806	-1442.47644	-61.86342	1195.71301	-1443.87756	-296.3107	1226.5238	-1344.70557	-181.76308	1375.7467	-1598.98352	-252.17287	1194.09949	-1665.14282	-295.27472	1052.83276	-1646.15271	-300.44427	941.05157	-1672.19141	-262.08728	804.74115	-1664.5874	-320.10309	820.0376	-1676.62524	-302.61261	735.49957	-1686.14465	-156.11063	1383.94543	-1286.89819	-204.11124	1193.63916	-1168.54504	-196.19406	1069.78284	-1144.99487	-134.81372	967.625	-1104.31763	-19.56876	885.30737	-1112.64233	-62.68595	873.28479	-1075.38599	-0.10085	817.4082	-1066.54443	-104.0655	919.00757	-1522.98792	-115.09184	919.91064	-1304.94165	-292.54059	928.79437	-1484.11389	-298.47058	940.23315	-1341.33667	-58.36045	601.99164	-1586.1123	-28.14643	474.88965	-1561.22937	-25.53779	286.42499	-1570.97156	27.24595	69.60571	-1519.3772	-1.87613	31.0276	-1460.43188	175.24393	70.53761	-1529.55151	-233.58174	597.20123	-1258.74902	-264.43045	438.39301	-1285.34094	-372.78629	297.48123	-1283.04163	-469.23203	112.71008	-1335.13733	-528.15448	95.55463	-1384.97827	-348.35519	35.13051	-1345.55908	-93.55534	1696.15967	-1408.2699	-1973.08679	1023.40649	3101.77295	-2012.55396	1022.073	3140.59253	NaN	NaN	NaN
104	1.03	-90.4166	1654.55896	-1500.26013	-68.15147	1662.46436	-1388.43433	-204.28207	1605.11743	-1482.67407	-183.80679	1612.0127	-1363.20947	-238.31836	1417.27136	-1434.50781	-271.85013	1123.71155	-1420.84448	-93.53374	1348.22949	-1444.2439	-51.06802	1195.35742	-1445.27881	-286.08704	1225.5697	-1346.75745	-171.28818	1374.66724	-1600.99731	-241.16541	1192.75793	-1667.047	-284.21896	1051.54761	-1647.90649	-289.25726	939.73224	-1673.70386	-250.86092	803.44788	-1665.71948	-308.84854	818.75592	-1678.15222	-291.19812	734.12189	-1687.33179	-146.44632	1383.38477	-1288.83679	-194.85471	1193.25879	-1170.53625	-187.14285	1069.40417	-1146.99182	-126.11917	967.06335	-1106.12207	-11.18745	884.16742	-1114.19043	-54.52443	872.3949	-1076.86597	7.9845	816.21881	-1068.09827	-92.27347	918.38782	-1523.97583	-104.03946	919.16693	-1305.88794	-281.00037	928.03125	-1485.67041	-287.29034	939.61908	-1342.81836	-45.65724	601.69067	-1583.41931	-16.97206	473.96567	-1560.27563	-18.39518	284.43637	-1569.64636	29.35894	67.7579	-1517.1344	-0.45199	31.42431	-1459.29321	178.53448	63.45812	-1527.03772	-222.79453	596.38751	-1259.32849	-254.19177	437.39432	-1285.00586	-365.88235	298.82809	-1282.69641	-466.58417	116.29881	-1334.28931	-525.54706	100.78684	-1383.96411	-347.88144	35.13072	-1345.32178	-83.82767	1695.10388	-1410.22388	-1973.12781	1023.3161	3102.01221	-2012.60071	1022.02966	3140.62964	NaN	NaN	NaN
105	1.04	-80.0637	1654.17407	-1502.25781	-58.26525	1662.05139	-1390.20654	-194.12054	1604.69336	-1485.03625	-174.06946	1611.57898	-1365.52393	-228.63899	1416.70593	-1437.15527	-260.66055	1122.64783	-1422.71924	-83.34743	1347.73779	-1446.15051	-40.22909	1195.22644	-1446.69189	-275.74588	1224.74048	-1349.08643	-160.74123	1373.73718	-1603.26099	-230.02594	1191.46594	-1669.07861	-272.93851	1050.22693	-1649.78967	-277.74326	938.31842	-1675.39893	-239.14647	802.17963	-1667.10962	-297.09656	817.37549	-1679.75659	-279.2919	732.79486	-1688.8125	-136.93997	1382.9231	-1290.92456	-185.67357	1192.89478	-1172.64734	-178.19551	1068.97681	-1149.12158	-117.62085	966.31311	-1108.00525	-2.94369	882.98383	-1115.85889	-46.42418	871.42993	-1078.64929	15.77485	814.85907	-1069.86255	-80.57697	917.89093	-1524.80603	-92.78784	918.46429	-1306.92871	-269.58844	927.37494	-1487.35437	-276.09576	939.00739	-1344.19653	-33.28008	601.11462	-1580.76587	-6.59914	472.38416	-1560.16443	-11.40585	282.93353	-1567.40906	34.1961	68.23662	-1516.83545	2.28158	33.20723	-1459.474	183.4157	57.33838	-1525.854	-211.73277	595.68933	-1259.98792	-243.2493	436.45001	-1285.08813	-358.48813	300.56662	-1282.61304	-463.33652	120.36739	-1333.32776	-522.45605	106.60357	-1382.84961	-347.47992	35.13907	-1345.13953	-73.64998	1694.78174	-1412.13062	-1973.23218	1023.76727	3101.73755	-2012.53394	1022.03503	3140.62646	NaN	NaN	NaN
106	1.05	-69.63629	1654.46277	-1504.26575	-48.32937	1662.14502	-1392.02271	-183.76398	1604.82251	-1487.53015	-164.29602	1611.6936	-1367.979	-218.68668	1416.43896	-1439.82068	-249.60463	1122.25476	-1424.4231	-73.10509	1347.70337	-1448.05408	-29.5094	1195.5188	-1448.19006	-265.46136	1224.22937	-1351.81897	-150.09482	1372.95825	-1605.58118	-218.59988	1190.19312	-1671.1947	-261.30573	1048.90295	-1651.86658	-265.79538	936.9502	-1677.31152	-226.92902	800.90137	-1668.65869	-284.93005	815.93561	-1681.30444	-266.93369	731.6925	-1690.68958	-127.61376	1382.84387	-1292.97986	-176.55629	1192.57043	-1174.74927	-169.3338	1068.5614	-1151.42737	-109.3597	965.6413	-1110.05737	4.79033	881.62506	-1117.69495	-38.78993	870.3371	-1080.39368	23.10553	813.41809	-1071.6438	-69.01478	917.59772	-1525.68079	-81.44531	917.86798	-1307.95752	-258.02402	926.99615	-1488.93713	-264.92169	938.47473	-1345.44653	-21.34827	600.96826	-1579.28503	3.42003	471.44446	-1560.69031	-3.27252	283.1629	-1565.4646	39.90919	68.24872	-1518.08411	4.72465	35.23338	-1461.19543	188.12596	52.39292	-1524.33618	-199.87247	594.82379	-1260.7749	-231.57011	435.38559	-1285.28674	-350.27136	302.88162	-1282.73352	-459.4072	124.71514	-1332.35229	-518.49713	113.30964	-1381.85828	-346.97467	34.97099	-1344.8877	-64.01147	1694.50378	-1413.99719	-1973.09021	1023.46686	3101.8728	-2012.51367	1021.97284	3140.6731	NaN	NaN	NaN
